# AST/ASF file generated using VICON BodyLanguage
# -----------------------------------------------
:version 1.10
:name VICON
:units
  mass 1.0
  length 0.45
  angle deg
:documentation
   .ast/.asf automatically generated from VICON data using
   VICON BodyBuilder and BodyLanguage model FoxedUp or BRILLIANT.MOD
:root
   order TX TY TZ RX RY RZ
   axis XYZ
   position 0 0 0  
   orientation 0 0 0 
:bonedata
  begin
     id 1 
     name lhipjoint
     direction 0.541323 -0.757556 0.364798 
     length 2.47576 
     axis 0 0 0  XYZ
  end
  begin
     id 2 
     name lfemur
     direction 0.34202 -0.939693 0  
     length 7.46493  
     axis 0 0 20  XYZ
    dof rx ry rz
    limits (-160.0 20.0)
           (-70.0 70.0)
           (-60.0 70.0)
  end
  begin
     id 3 
     name ltibia
     direction 0.34202 -0.939693 0   
     length 7.73805   
     axis 0 0 20   XYZ
    dof rx
    limits (-10.0 170.0)
  end
  begin
     id 4 
     name lfoot
     direction 0.107174 -0.294458 0.949636   
     length 2.25864   
     axis -90 7.62852e-016 20   XYZ
    dof rx rz
    limits (-45.0 90.0)
           (-70.0 20.0)
  end
  begin
     id 5 
     name ltoes
     direction 1.53606e-011 -4.21934e-011 1   
     length 1.12451   
     axis -90 7.62852e-016 20   XYZ
    dof rx
    limits (-90.0 20.0)
  end
  begin
     id 6 
     name rhipjoint
     direction -0.524745 -0.766967 0.36933   
     length 2.44538  
     axis 0 0 0  XYZ 
  end
  begin
     id 7 
     name rfemur
     direction -0.34202 -0.939693 0   
     length 7.61604   
     axis 0 0 -20   XYZ
    dof rx ry rz
    limits (-160.0 20.0)
           (-70.0 70.0)
           (-70.0 60.0)
  end
  begin
     id 8 
     name rtibia
     direction -0.34202 -0.939693 0   
     length 7.61056   
     axis 0 0 -20   XYZ
    dof rx
    limits (-10.0 170.0)
 end
 begin
     id 9 
     name rfoot
     direction -0.12616 -0.346623 0.929482   
     length 2.46372  
     axis -90 -7.62852e-016 -20   XYZ
    dof rx rz
    limits (-45.0 90.0)
           (-20.0 70.0)
  end
  begin
     id 10 
     name rtoes
     direction -1.53531e-011 -4.22004e-011 1   
     length 1.21611   
     axis -90 -7.62852e-016 -20   XYZ
    dof rx
    limits (-90.0 20.0)
  end
  begin
     id 11 
     name lowerback
     direction -0.000778023 0.997293 -0.0735223   
     length 2.06139   
     axis 0 0 0   XYZ
    dof rx ry rz
    limits (-20.0 45.0)
           (-30.0 30.0)
           (-30.0 30.0)
  end
  begin
     id 12 
     name upperback
     direction 0.0222598 0.999722 -0.0078355   
     length 2.06383   
     axis 0 0 0   XYZ
    dof rx ry rz
    limits (-20.0 45.0)
           (-30.0 30.0)
           (-30.0 30.0)
  end
  begin
     id 13 
     name thorax
     direction 0.0219654 0.999405 0.0265994   
     length 2.07163   
     axis 0 0 0   XYZ
    dof rx ry rz
    limits (-20.0 45.0)
           (-30.0 30.0)
           (-30.0 30.0)
  end
  begin
     id 14 
     name lowerneck
     direction 0.0213282 0.988147 0.15202   
     length 1.75969   
     axis 0 0 0   XYZ
    dof rx ry rz
    limits (-20.0 45.0)
           (-30.0 30.0)
           (-30.0 30.0)
  end
  begin
     id 15 
     name upperneck
     direction -0.0546456 0.982624 -0.177379   
     length 1.79244   
     axis 0 0 0   XYZ
    dof rx ry rz
    limits (-20.0 45.0)
           (-30.0 30.0)
           (-30.0 30.0)
  end
  begin
     id 16
     name head
     direction -0.0199987 0.996855 -0.076686  
     length 1.80555  
     axis 0 0 0   XYZ
    dof rx ry rz
    limits (-20.0 45.0)
           (-30.0 30.0)
           (-30.0 30.0)
  end
  begin
     id 17 
     name lclavicle
     direction 0.929565 0.363219 -0.063096  
     length 3.55722  
     axis 0 0 0   XYZ
    dof ry rz
    limits (-20.0 10.0)
           (0.0 20.0)
  end
  begin
     id 18 
     name lhumerus
     direction 1 -4.48993e-011 -2.36203e-027   
     length 4.92785   
     axis 180 -30 -90   XYZ
    dof rx ry rz
    limits (-60.0 90.0)
           (-90.0 90.0)
           (-90.0 90.0)
  end
  begin
     id 19
     name lradius
     direction 1 -4.48947e-011 2.02997e-027   
     length 3.44052   
     axis 180 -30 -90   XYZ
    dof rx
    limits (-10.0 170.0)
  end
  begin
     id 20
     name lwrist
     direction 1 -4.48962e-011 1.45991e-027   
     length 1.72026   
     axis 1.49639e-024 90 90   XYZ
    dof ry
    limits (-180.0 0.0)
 end
  begin
     id 21 
     name lhand
     direction 1 -4.48984e-011 2.91906e-027   
     length 0.654326   
     axis -1.863e-015 90 90   XYZ
    dof rx rz
    limits (-90.0 90.0)
           (-45.0 45.0)
  end
  begin
     id 22 
     name lfingers
     direction 1 -4.48961e-011 5.83968e-027   
     length 0.527534   
     axis -3.72598e-015 90 90   XYZ
    dof rx
    limits (0.0 90.0)
  end
  begin
     id 23
     name lthumb
     direction 0.707107 -6.34963e-011 0.707107   
     length 0.757437   
     axis -90 45 -6.68868e-015   XYZ
    dof rx rz
    limits (-45.0 45.0)
           (-45.0 45.0)
  end
  begin
     id 24 
     name rclavicle
     direction -0.902944 0.422599 -0.0781198   
     length 3.54432  
     axis 0 0 0   XYZ 
    dof ry rz
    limits (-10.0 20.0)
           (-20.0 0.0)
  end
  begin
     id 25 
     name rhumerus
     direction -1 -4.48953e-011 -4.75835e-028  
     length 5.09181   
     axis 180 30 90   XYZ
    dof rx ry rz
    limits (-90.0 60.0)
           (-90.0 90.0)
           (-90.0 90.0)
  end
  begin
     id 26 
     name rradius
     direction -1 -4.48986e-011 -3.25889e-027   
     length 3.49865   
     axis 180 30 90   XYZ
    dof rx
    limits (-10.0 170.0)
  end
  begin
     id 27 
     name rwrist
     direction -1 -4.48963e-011 1.45989e-027   
     length 1.74933   
     axis 1.49639e-024 -90 -90   XYZ
    dof ry
    limits (-180.0 0.0)
  end
  begin
     id 28
     name rhand
     direction -1 -4.49003e-011 2.91844e-027   
     length 0.66641   
     axis -1.863e-015 -90 -90   XYZ
    dof rx rz
    limits (-90.0 90.0)
           (-45.0 45.0)
  end
  begin
     id 29
     name rfingers
     direction -1 -4.48973e-011 5.83886e-027   
     length 0.537277   
     axis -3.72598e-015 -90 -90   XYZ
    dof rx
    limits (0.0 90.0)
  end
  begin
     id 30
     name rthumb
     direction -0.707107 -6.34976e-011 0.707107   
     length 0.771425   
     axis -90 -45 6.68868e-015   XYZ
    dof rx rz
    limits (-45.0 45.0)
           (-45.0 45.0)
  end
:hierarchy
  begin
    root lhipjoint rhipjoint lowerback
    lhipjoint lfemur
    lfemur ltibia
    ltibia lfoot
    lfoot ltoes
    rhipjoint rfemur
    rfemur rtibia
    rtibia rfoot
    rfoot rtoes
    lowerback upperback
    upperback thorax
    thorax lowerneck lclavicle rclavicle
    lowerneck upperneck
    upperneck head
    lclavicle lhumerus
    lhumerus lradius
    lradius lwrist
    lwrist lhand lthumb
    lhand lfingers
    rclavicle rhumerus
    rhumerus rradius
    rradius rwrist
    rwrist rhand rthumb
    rhand rfingers
  end

#!OML:ASF H:\LiuWeirdWalks\Patient Classification 1\Patient 1\Session 1\male.ASF
:FULLY-SPECIFIED
:DEGREES
169
root 0.690409 17.9376 -29.2746 2.06795 7.12786 -2.4734
lowerback 1.61326 0.763158 -0.608077
upperback 0.585933 1.0231 2.76811
thorax -0.36519 0.5115 3.16271
lowerneck -25.2974 -1.88415 9.45876
upperneck 42.7902 -2.59694 -11.3636
head 21.7421 -0.858827 -8.6681
rclavicle 1.2424e-016 -2.38542e-014
rhumerus -32.4133 -10.5494 -68.5584
rradius 29.0966
rwrist -5.1193
rhand -15.228 0.417291
rfingers 7.12502
rthumb 10.9449 -29.2774
lclavicle 1.2424e-016 -2.38542e-014
lhumerus -31.6688 3.97847 79.2292
lradius 30.579
lwrist 2.61149
lhand -9.30634 2.00371
lfingers 7.12502
lthumb 16.6515 31.3094
rfemur -8.95593 -5.11371 19.9492
rtibia 29.5485
rfoot -13.249 -27.4141
rtoes -1.54551
lfemur -7.62308 -1.11831 -16.8319
ltibia 27.1099
lfoot -11.9905 19.2032
ltoes -6.96283
170
root 0.698995 17.9375 -29.2737 2.09002 6.95568 -2.48741
lowerback 1.60987 0.70393 -0.640818
upperback 0.554987 0.944241 2.79342
thorax -0.391249 0.472506 3.20878
lowerneck -25.2978 -1.88133 9.31553
upperneck 42.752 -2.54699 -11.3065
head 21.7272 -0.862842 -8.59022
rclavicle -2.64632e-014 -3.22031e-014
rhumerus -32.6408 -10.9601 -67.9318
rradius 28.9707
rwrist -5.00993
rhand -15.314 0.315295
rfingers 7.12502
rthumb 10.8619 -29.3838
lclavicle -2.64632e-014 -3.22031e-014
lhumerus -31.5676 4.173 78.7455
lradius 30.6842
lwrist 2.65559
lhand -9.42485 2.0571
lfingers 7.12502
lthumb 16.5374 31.3724
rfemur -8.98796 -5.01931 19.9344
rtibia 29.5426
rfoot -13.2065 -27.3484
rtoes -1.57767
lfemur -7.61102 -1.06214 -16.8535
ltibia 27.1116
lfoot -11.998 19.2976
ltoes -6.93521
171
root 0.707132 17.9372 -29.273 2.1081 6.80811 -2.49829
lowerback 1.61465 0.639073 -0.68189
upperback 0.529307 0.857709 2.82085
thorax -0.416006 0.429635 3.26188
lowerneck -25.313 -1.85497 9.24001
upperneck 42.7311 -2.48153 -11.2822
head 21.7344 -0.850739 -8.54654
rclavicle -3.93842e-014 -7.55382e-015
rhumerus -32.8448 -11.3766 -67.306
rradius 28.8184
rwrist -4.88266
rhand -15.4174 0.21592
rfingers 7.12502
rthumb 10.7622 -29.4884
lclavicle -3.93842e-014 -7.55382e-015
lhumerus -31.4523 4.37769 78.2625
lradius 30.7807
lwrist 2.70535
lhand -9.54262 2.07495
lfingers 7.12502
lthumb 16.4241 31.3997
rfemur -9.01291 -4.93294 19.9194
rtibia 29.5374
rfoot -13.1831 -27.2995
rtoes -1.58721
lfemur -7.60006 -1.01096 -16.8741
ltibia 27.1171
lfoot -12.0143 19.3692
ltoes -6.90756
172
root 0.715567 17.9369 -29.2723 2.12735 6.66843 -2.50429
lowerback 1.61396 0.577393 -0.723141
upperback 0.498894 0.775436 2.84464
thorax -0.442566 0.388979 3.31131
lowerneck -25.3113 -1.79386 9.28379
upperneck 42.7173 -2.39428 -11.3161
head 21.7445 -0.816063 -8.55534
rclavicle -1.3418e-014 -7.55382e-015
rhumerus -33.048 -11.8116 -66.6739
rradius 28.6343
rwrist -4.72571
rhand -15.5058 0.176242
rfingers 7.12502
rthumb 10.6768 -29.5325
lclavicle -1.3418e-014 -7.55382e-015
lhumerus -31.3439 4.57013 77.7823
lradius 30.863
lwrist 2.75589
lhand -9.66172 2.08396
lfingers 7.12502
lthumb 16.3094 31.4181
rfemur -9.03937 -4.85827 19.8969
rtibia 29.5349
rfoot -13.1705 -27.2466
rtoes -1.58462
lfemur -7.59119 -0.960934 -16.9007
ltibia 27.1236
lfoot -12.0394 19.43
ltoes -6.87828
173
root 0.724809 17.9365 -29.2714 2.14522 6.51469 -2.50191
lowerback 1.60785 0.52189 -0.767417
upperback 0.453447 0.701598 2.86593
thorax -0.481863 0.352846 3.35971
lowerneck -25.2877 -1.72082 9.3425
upperneck 42.7047 -2.28953 -11.357
head 21.7521 -0.772945 -8.56592
rclavicle -6.90777e-015 -1.94809e-014
rhumerus -33.2849 -12.2236 -66.0358
rradius 28.4417
rwrist -4.5498
rhand -15.5956 0.136105
rfingers 7.12502
rthumb 10.5902 -29.5771
lclavicle -6.90777e-015 -1.94809e-014
lhumerus -31.2787 4.76126 77.3012
lradius 30.9397
lwrist 2.80174
lhand -9.75549 2.02432
lfingers 7.12502
lthumb 16.2191 31.3659
rfemur -9.06673 -4.7894 19.8589
rtibia 29.5367
rfoot -13.1565 -27.1756
rtoes -1.58857
lfemur -7.57512 -0.905759 -16.9415
ltibia 27.1284
lfoot -12.0744 19.4972
ltoes -6.83162
174
root 0.734895 17.9358 -29.2701 2.16126 6.3442 -2.4985
lowerback 1.59992 0.474427 -0.801039
upperback 0.425919 0.638266 2.88556
thorax -0.502154 0.321624 3.4003
lowerneck -25.302 -1.64315 9.40883
upperneck 42.6977 -2.18389 -11.4016
head 21.7787 -0.727125 -8.58473
rclavicle 1.14301e-015 -2.0276e-014
rhumerus -33.4787 -12.6536 -65.4034
rradius 28.2305
rwrist -4.34556
rhand -15.6559 0.107207
rfingers 7.12502
rthumb 10.5321 -29.6089
lclavicle 1.14301e-015 -2.0276e-014
lhumerus -31.1807 4.9678 76.8253
lradius 31.0072
lwrist 2.83199
lhand -9.84777 1.9708
lfingers 7.12502
lthumb 16.1302 31.3196
rfemur -9.09487 -4.72456 19.8127
rtibia 29.5418
rfoot -13.1625 -27.0819
rtoes -1.56604
lfemur -7.55234 -0.846873 -16.9883
ltibia 27.1308
lfoot -12.12 19.5732
ltoes -6.7855
175
root 0.745621 17.935 -29.2686 2.17442 6.15815 -2.49499
lowerback 1.58999 0.436975 -0.825627
upperback 0.399348 0.58839 2.90196
thorax -0.520993 0.297119 3.43219
lowerneck -25.3296 -1.56957 9.47149
upperneck 42.6956 -2.08212 -11.4508
head 21.8136 -0.683236 -8.6085
rclavicle -5.8393e-015 2.54444e-014
rhumerus -33.6778 -13.1035 -64.7628
rradius 28.0089
rwrist -4.11004
rhand -15.6946 0.0678941
rfingers 7.12502
rthumb 10.4948 -29.6501
lclavicle -5.8393e-015 2.54444e-014
lhumerus -31.0913 5.16886 76.3534
lradius 31.0767
lwrist 2.8365
lhand -9.92176 1.92833
lfingers 7.12502
lthumb 16.059 31.2828
rfemur -9.12294 -4.65567 19.7623
rtibia 29.5485
rfoot -13.1623 -26.9782
rtoes -1.55475
lfemur -7.52282 -0.781836 -17.0388
ltibia 27.131
lfoot -12.1708 19.6574
ltoes -6.72611
176
root 0.75621 17.9342 -29.2673 2.18055 5.96754 -2.49879
lowerback 1.58371 0.405949 -0.840386
upperback 0.392127 0.546901 2.9205
thorax -0.522458 0.276433 3.46062
lowerneck -25.4095 -1.51645 9.46964
upperneck 42.7044 -1.99956 -11.4687
head 21.8733 -0.65197 -8.61232
rclavicle 1.61513e-015 1.51076e-014
rhumerus -33.854 -13.5542 -64.1342
rradius 27.8037
rwrist -3.88302
rhand -15.7047 0.0187448
rfingers 7.12502
rthumb 10.485 -29.6998
lclavicle 1.61513e-015 1.51076e-014
lhumerus -30.9569 5.38225 75.8885
lradius 31.1276
lwrist 2.82105
lhand -9.95076 1.91332
lfingers 7.12502
lthumb 16.0311 31.2701
rfemur -9.14538 -4.57439 19.7206
rtibia 29.5553
rfoot -13.1685 -26.8798
rtoes -1.52949
lfemur -7.48726 -0.707597 -17.0798
ltibia 27.1301
lfoot -12.2249 19.7362
ltoes -6.66555
177
root 0.766097 17.9336 -29.2665 2.18533 5.79136 -2.50765
lowerback 1.5851 0.37466 -0.857395
upperback 0.392596 0.50495 2.94265
thorax -0.520305 0.255406 3.49404
lowerneck -25.4949 -1.47779 9.43742
upperneck 42.7208 -1.93279 -11.469
head 21.9376 -0.629101 -8.60513
rclavicle 1.36416e-014 1.43125e-014
rhumerus -34.0193 -14.0129 -63.5108
rradius 27.6082
rwrist -3.66282
rhand -15.6954 -0.0429363
rfingers 7.12502
rthumb 10.494 -29.761
lclavicle 1.36416e-014 1.43125e-014
lhumerus -30.81 5.59454 75.434
lradius 31.1901
lwrist 2.78766
lhand -9.95552 1.94518
lfingers 7.12502
lthumb 16.0265 31.3023
rfemur -9.16892 -4.48464 19.6904
rtibia 29.5643
rfoot -13.1745 -26.8028
rtoes -1.50626
lfemur -7.45555 -0.629249 -17.1096
ltibia 27.127
lfoot -12.2758 19.7973
ltoes -6.60122
178
root 0.775502 17.9331 -29.2661 2.19208 5.63522 -2.51357
lowerback 1.58201 0.340466 -0.87856
upperback 0.405284 0.458778 2.96613
thorax -0.50281 0.231971 3.53134
lowerneck -25.6086 -1.44523 9.37977
upperneck 42.7128 -1.86792 -11.463
head 21.9919 -0.612793 -8.58677
rclavicle -1.8313e-014 -9.54166e-015
rhumerus -34.1623 -14.489 -62.8905
rradius 27.4133
rwrist -3.4434
rhand -15.6655 -0.0703983
rfingers 7.12502
rthumb 10.5229 -29.787
lclavicle -1.8313e-014 -9.54166e-015
lhumerus -30.6324 5.81245 74.9914
lradius 31.2412
lwrist 2.75194
lhand -9.9614 1.95652
lfingers 7.12502
lthumb 16.0208 31.3141
rfemur -9.19503 -4.40145 19.6605
rtibia 29.5759
rfoot -13.1643 -26.7399
rtoes -1.51311
lfemur -7.42998 -0.541389 -17.1379
ltibia 27.1222
lfoot -12.3238 19.8348
ltoes -6.54209
179
root 0.784119 17.9327 -29.2663 2.2041 5.51938 -2.49633
lowerback 1.58296 0.297454 -0.932034
upperback 0.412245 0.400434 2.98597
thorax -0.492728 0.202599 3.58336
lowerneck -25.688 -1.42815 9.29509
upperneck 42.6726 -1.81515 -11.4442
head 22.0031 -0.60866 -8.54774
rclavicle -1.13059e-014 -2.22639e-014
rhumerus -34.3062 -14.9865 -62.2632
rradius 27.2102
rwrist -3.21577
rhand -15.6403 -0.126154
rfingers 7.12502
rthumb 10.5472 -29.8415
lclavicle -1.13059e-014 -2.22639e-014
lhumerus -30.4602 6.0201 74.5563
lradius 31.3003
lwrist 2.72563
lhand -9.94912 1.95178
lfingers 7.12502
lthumb 16.0326 31.3084
rfemur -9.22417 -4.33952 19.6099
rtibia 29.5922
rfoot -13.1563 -26.694
rtoes -1.52223
lfemur -7.41595 -0.448363 -17.1848
ltibia 27.1152
lfoot -12.3631 19.8357
ltoes -6.50045
180
root 0.792911 17.9322 -29.2662 2.21504 5.41363 -2.4766
lowerback 1.57933 0.255863 -0.9859
upperback 0.41912 0.343936 3.00321
thorax -0.480137 0.174109 3.63288
lowerneck -25.7194 -1.41973 9.21568
upperneck 42.6097 -1.77512 -11.4224
head 21.9736 -0.611537 -8.50122
rclavicle 1.03865e-014 -2.42517e-014
rhumerus -34.4529 -15.5009 -61.6327
rradius 27.0027
rwrist -2.98746
rhand -15.5917 -0.140511
rfingers 7.12502
rthumb 10.594 -29.8535
lclavicle 1.03865e-014 -2.42517e-014
lhumerus -30.2947 6.21414 74.1295
lradius 31.3694
lwrist 2.68977
lhand -9.94553 1.93458
lfingers 7.12502
lthumb 16.0361 31.2909
rfemur -9.25203 -4.28558 19.5555
rtibia 29.6132
rfoot -13.1491 -26.6487
rtoes -1.53949
lfemur -7.40003 -0.350361 -17.2345
ltibia 27.1062
lfoot -12.4028 19.8284
ltoes -6.47002
181
root 0.802244 17.9317 -29.2653 2.22431 5.30378 -2.4533
lowerback 1.57485 0.216436 -1.04046
upperback 0.404352 0.290743 3.01924
thorax -0.489356 0.147765 3.68145
lowerneck -25.6926 -1.40882 9.13691
upperneck 42.5357 -1.72812 -11.3934
head 21.9148 -0.612765 -8.44168
rclavicle -8.44835e-016 1.98785e-015
rhumerus -34.6393 -16.0039 -60.987
rradius 26.7893
rwrist -2.7356
rhand -15.552 -0.159566
rfingers 7.12502
rthumb 10.6323 -29.8706
lclavicle -8.44835e-016 1.98785e-015
lhumerus -30.1938 6.39612 73.702
lradius 31.4645
lwrist 2.67021
lhand -9.92321 1.87068
lfingers 7.12502
lthumb 16.0576 31.2253
rfemur -9.27795 -4.23642 19.4939
rtibia 29.6376
rfoot -13.1405 -26.5967
rtoes -1.56373
lfemur -7.37773 -0.248124 -17.2917
ltibia 27.0975
lfoot -12.4446 19.8276
ltoes -6.44177
182
root 0.812411 17.9308 -29.2637 2.22943 5.16985 -2.43303
lowerback 1.57144 0.190184 -1.08367
upperback 0.379125 0.255507 3.03129
thorax -0.511026 0.130688 3.7191
lowerneck -25.6161 -1.40695 9.07077
upperneck 42.4676 -1.69716 -11.3651
head 21.8383 -0.618228 -8.38523
rclavicle 1.3741e-014 -9.93923e-015
rhumerus -34.8551 -16.507 -60.3352
rradius 26.5845
rwrist -2.47623
rhand -15.4978 -0.174197
rfingers 7.12502
rthumb 10.6846 -29.8825
lclavicle 1.3741e-014 -9.93923e-015
lhumerus -30.129 6.55136 73.2789
lradius 31.5836
lwrist 2.66723
lhand -9.91173 1.81663
lfingers 7.12502
lthumb 16.0687 31.1704
rfemur -9.30142 -4.1837 19.429
rtibia 29.6626
rfoot -13.1314 -26.5241
rtoes -1.58318
lfemur -7.34611 -0.143984 -17.3523
ltibia 27.0915
lfoot -12.4937 19.8506
ltoes -6.41533
